<svg width="91" height="23" viewBox="0 0 91 23" fill="none" xmlns="http://www.w3.org/2000/svg">
<path d="M9.90621 0.113647C4.43537 0.113647 0 5.12685 0 11.312C0 17.496 4.43537 22.5103 9.90621 22.5103C15.3774 22.5103 19.8131 17.496 19.8131 11.312C19.8131 5.12685 15.3777 0.113647 9.90621 0.113647ZM9.90621 21.2461C5.05245 21.2461 1.11707 16.7981 1.11707 11.312C1.11707 5.82474 5.05213 1.37707 9.90621 1.37707C14.7603 1.37707 18.6953 5.82474 18.6953 11.312C18.6953 16.7981 14.7603 21.2461 9.90621 21.2461Z" fill="white"/>
<path d="M17.1067 15.8216L15.6683 13.923C15.6506 13.9 15.6296 13.8803 15.6054 13.8643C15.5319 13.8169 15.4454 13.8158 15.3741 13.8548C15.1545 13.9722 14.889 13.97 14.6626 13.8224C14.4609 13.6918 14.3326 13.4716 14.2926 13.2324H14.2929C14.1916 12.6231 13.8652 12.066 13.3532 11.7324L12.7091 11.3123L16.3712 8.92257L15.918 8.03471L11.8026 10.7202L11.3081 10.3978V9.75208L15.4232 7.06627L14.97 6.17878L11.3081 8.56888V7.72843C11.3081 7.06007 11.0443 6.46172 10.6285 6.05845C10.4649 5.9002 10.361 5.66466 10.361 5.40176C10.361 5.10606 10.492 4.84426 10.6923 4.6882C10.7578 4.63788 10.8001 4.55256 10.8001 4.45666C10.8001 4.42494 10.7956 4.39431 10.7872 4.36587L10.052 2.00895C10.0317 1.94003 9.97428 1.89081 9.90687 1.89081C9.83977 1.89081 9.78235 1.94003 9.76203 2.00895L9.02721 4.36587C9.0185 4.39431 9.01398 4.42494 9.01398 4.45666C9.01398 4.55256 9.05656 4.63788 9.1214 4.6882H9.12172C9.32172 4.84426 9.45301 5.10606 9.45301 5.40176C9.45301 5.66466 9.34946 5.9002 9.18527 6.05845C8.76915 6.46172 8.50593 7.06044 8.50593 7.72843V8.56888L4.84377 6.17878L4.39055 7.06627L8.50593 9.75208V10.3982L8.01143 10.7202L3.89605 8.03471L3.44316 8.92257L7.10532 11.3123L6.46082 11.7324C5.9489 12.066 5.62246 12.6231 5.52149 13.2324C5.48149 13.4716 5.35343 13.6918 5.15182 13.8224C4.92505 13.97 4.6599 13.9722 4.4399 13.8548C4.36829 13.8162 4.28217 13.8169 4.20894 13.8643C4.18443 13.8803 4.16314 13.9004 4.14604 13.923L2.70737 15.8209C2.66511 15.8752 2.65608 15.9554 2.68963 16.0225C2.72317 16.0878 2.78962 16.1195 2.8522 16.106L5.0257 15.6459C5.05183 15.64 5.07795 15.6294 5.10182 15.6138C5.17569 15.5653 5.21892 15.4818 5.22537 15.3921C5.24505 15.1186 5.37988 14.859 5.60633 14.7113C5.80729 14.5808 6.03986 14.564 6.24341 14.6446C6.76049 14.8502 7.35048 14.809 7.8624 14.4743L8.50658 14.055V18.8345H9.41301V13.4629L9.90783 13.1402L10.4023 13.4629V18.8341H11.3091V14.0546L11.9529 14.474C12.4649 14.8087 13.0552 14.8499 13.5723 14.6442C13.7752 14.5633 14.0081 14.5801 14.2093 14.711C14.4358 14.8586 14.5703 15.1182 14.59 15.3917C14.5961 15.4814 14.6397 15.5653 14.7129 15.6134C14.7371 15.6291 14.7632 15.6397 14.7893 15.6455L16.9625 16.1056C17.0254 16.1191 17.0915 16.0874 17.1254 16.0221C17.158 15.9554 17.1486 15.8756 17.1067 15.8216ZM8.50561 12.8718L7.29693 13.6601C7.06016 13.8147 6.75791 13.7228 6.62146 13.4556C6.48502 13.1876 6.56598 12.8459 6.80275 12.6913L8.01143 11.9026L8.50593 12.2257V12.8718H8.50561ZM9.41204 7.5833C9.41204 7.2741 9.63332 7.02361 9.90654 7.02361C10.1798 7.02361 10.4014 7.2741 10.4014 7.5833V9.1603L9.90687 9.48263L9.41204 9.1603V7.5833ZM10.4756 11.6831L9.90687 12.0539L9.33753 11.6828V10.94L9.90687 10.5685L10.4756 10.94V11.6831ZM13.1919 13.4559C13.0552 13.7228 12.7523 13.8147 12.5158 13.6605L11.3075 12.8714V12.2261L11.802 11.903L13.0103 12.6917C13.2471 12.8463 13.3281 13.1876 13.1919 13.4559Z" fill="white"/>
<path d="M75.8659 9.03704H72.5595V1.56519H69.5392V21.0583H72.5595V12.498H75.8659V21.0583H78.9519V1.56519H75.8659V9.03704Z" fill="white"/>
<path d="M22.0182 1.56519L25.37 13.5179V21.0583H28.7251V13.1307L32.1999 1.56519H29.3764L27.0955 9.15956L25.0307 1.56519H22.0182Z" fill="white"/>
<path d="M51.1472 1.56519L49.7004 10.8379L48.0227 1.56519H43.3077V21.0583H46.0115V6.36436L48.3188 19.1382H50.8439L52.8903 6.15688V21.0583H56.0606V1.56519H51.1472Z" fill="white"/>
<path d="M88.1546 1.56519H83.4841L80.3325 21.0583H83.1273L83.7957 16.5224H87.272L87.9204 21.0583H91L88.1546 1.56519ZM84.275 13.2729L85.5601 4.55473L86.8075 13.2729H84.275Z" fill="white"/>
<path d="M60.5931 1.56519L57.4406 21.0583H60.236L60.905 16.5224H64.3813L65.0297 21.0583H68.1087L65.2629 1.56519H60.5931ZM61.3837 13.2729L62.6688 4.55473L63.9162 13.2729H61.3837Z" fill="white"/>
<path d="M34.3608 1.56519L31.2083 21.0583H34.0041L34.6731 16.5224H38.1491L38.7978 21.0583H41.8761L39.0307 1.56519H34.3608ZM35.1518 13.2729L36.4369 4.55473L37.684 13.2729H35.1518Z" fill="white"/>
</svg>
